<svg xmlns="http://www.w3.org/2000/svg" viewBox="0 0 281.11 191.28"><defs><style>.cls-1,.cls-3,.cls-5,.cls-6,.cls-7,.cls-8,.cls-9{fill:#f2d491;}.cls-2,.cls-3,.cls-5,.cls-6,.cls-7,.cls-8,.cls-9{isolation:isolate;}.cls-3{font-size:30px;letter-spacing:0.2em;}.cls-3,.cls-7,.cls-8,.cls-9{font-family:ArialMT, Arial;}.cls-4{fill:none;}.cls-5,.cls-6{font-size:40px;font-family:MarcelleScript, Marcelle Script;}.cls-5{letter-spacing:-0.04em;}.cls-7,.cls-8,.cls-9{font-size:15px;}.cls-7{letter-spacing:-0.01em;}.cls-9{letter-spacing:-0.06em;}</style></defs><g id="Layer_2" data-name="Layer 2"><g id="Layer_1-2" data-name="Layer 1"><g id="Layer_2-2" data-name="Layer 2"><g id="Layer_1-2-2" data-name="Layer 1-2"><polygon class="cls-1" points="256.62 107.34 256.62 122.27 8.53 122.27 8.53 107.34 7.63 107.34 7.63 123.02 257.52 123.02 257.52 107.34 256.62 107.34"/><g class="cls-2"><text class="cls-3" transform="translate(69.2 157.45)">r</text><text class="cls-3" transform="translate(88.64 157.45)">u</text><text class="cls-3" transform="translate(108.08 157.45)">s</text><text class="cls-3" transform="translate(126.5 157.45)">tics</text></g><path class="cls-4" d="M124,25.27a5.42,5.42,0,0,0-.11-.72v.57Z"/><path class="cls-4" d="M124.55,33.65l.17-.17-.61-.64-.5-.55-.75-.58-1-.78a.42.42,0,0,0,.09.14c.17.26.31.5.43.71l.17.16.34.36h0a12.05,12.05,0,0,1,1.4,1.07A2.21,2.21,0,0,0,124.55,33.65Z"/><path class="cls-4" d="M124.14,31.43l.09.11c.23.19.44.41.65.61s.48.51.69.75l.18-.07-.58-.84-.13-.11-1.27-1.09-.5-.43.18.21Z"/><path class="cls-4" d="M125.17,42.45v-.07l-.12.15h0Z"/><path class="cls-4" d="M113.59,54.31v.53a3.42,3.42,0,0,1,.13-.62c0-.21,0-.19.08-.29h0C113.68,54.16,113.61,54.28,113.59,54.31Z"/><path class="cls-4" d="M120.61,43.46h0l.18-.15-.2.14Z"/><path class="cls-4" d="M126,30.07v-.64l-.29-.23c.06.18.14.37.2.55Z"/><path class="cls-4" d="M121.52,35.38l-.17.13a3.75,3.75,0,0,1,.67,0s-.28.23-.72.52l.24-.12.85-.33c.21-.08.41-.14.61-.2l.08-.06a1.58,1.58,0,0,1,.24-.15h-.1Z"/><path class="cls-4" d="M128.4,32h0v-.1h0Z"/><path class="cls-4" d="M129.29,28.8a1.4,1.4,0,0,1-.1.35l.1-.23h-.08a1.33,1.33,0,0,1,.14-.19h-.06Z"/><path class="cls-4" d="M130.34,29c0,.06-.09.11-.13.16l.3-.22.41-.27-.35.07Z"/><path class="cls-4" d="M129.41,28.42v-.19l-.09.23Z"/><path class="cls-4" d="M127.73,26.11a1.19,1.19,0,0,1,.08-.2.56.56,0,0,1,.06-.33c-.06.1-.1.18-.15.28S127.73,26,127.73,26.11Z"/><path class="cls-4" d="M122.39,45.92v.28l.08-.1a.83.83,0,0,1,.08-.43l-.1.19Z"/><path class="cls-4" d="M113.62,54a6.42,6.42,0,0,1,.11-1.16v-.19c-.08.14-.15.28-.22.42a8.65,8.65,0,0,1,.08.89Z"/><path class="cls-4" d="M123.22,34.57h0Z"/><path class="cls-4" d="M122.89,42.38a1,1,0,0,1,.11-.17h0A1,1,0,0,0,122.89,42.38Z"/><path class="cls-4" d="M119.78,34.51l-1.2.23h.57c.49-.06,1-.08,1.45-.12h.62a11.51,11.51,0,0,1-1.18-.13Z"/><path class="cls-4" d="M134.55,17l-.11.11h0a1.84,1.84,0,0,0,.22-.17A.24.24,0,0,1,134.55,17Z"/><path class="cls-4" d="M110.9,11.48h-.08a2.5,2.5,0,0,1,.35.21l-.09-.07Z"/><path class="cls-4" d="M107.29,11.69h.08S107.29,11.67,107.29,11.69Z"/><path class="cls-4" d="M117.69,14.86a.72.72,0,0,0-.3-.4.31.31,0,0,0-.19,0c0,.08.12.18.16.26A10.38,10.38,0,0,1,118,16c.15.18.31.35.45.53l-.43-1Z"/><path class="cls-4" d="M121.06,19.92l-.07-.13.1.25Z"/><path class="cls-4" d="M143.92,11l-.15.06h.5Z"/><path class="cls-4" d="M136.39,17.06a7.83,7.83,0,0,1,2.15-1.45l.2-.08c-.4.1-.81.2-1.22.33l-.61.46c-.23.17-.45.35-.67.53,0,.08-.08.17-.13.26a7.39,7.39,0,0,1-.47.76l.09-.06A4.67,4.67,0,0,1,136.39,17.06Z"/><path class="cls-4" d="M139.29,12.15h-.11l-.2.18.19-.12Z"/><path class="cls-4" d="M120.87,22.21l.25.22-.07-.14Z"/><path class="cls-4" d="M119.29,34.3l-.18-.06h-.34c-1.23-.07-2.53-.07-3.88-.06H114l-.22.06-1.88.49-2.63.69-2.52.7-.31.23a6.86,6.86,0,0,1,1.37-.51l-.3.29-.47.42c.54-.21,1.13-.42,1.75-.63s1-.32,1.5-.45l1.56-.39c.56-.13,1.06-.23,1.59-.32s1-.16,1.54-.23c.92-.12,1.84-.2,2.77-.23C118.39,34.28,118.9,34.29,119.29,34.3Z"/><path class="cls-4" d="M136.14,22.53l.51-.36-.63.16h-.24l.13.05Z"/><path class="cls-4" d="M114.21,36.81c-.16.11-.32.25-.48.38l.43-.31c.26-.17.5-.32.75-.46h-.22Z"/><path class="cls-4" d="M110.06,63.56v0Z"/><path class="cls-4" d="M99.67,37.82c-.36.23-.75.49-1.16.74l-.19.18.5-.31c.4-.25,1-.59,1.71-1,.21-.11.42-.22.65-.32l.2-.12-1.07.49Z"/><path class="cls-4" d="M117.46,30.43H118a8.48,8.48,0,0,1,1.33.08l-.48-.33A9.06,9.06,0,0,1,117.46,30.43Z"/><path class="cls-4" d="M112.06,56.62v-.18a3.62,3.62,0,0,1,.14-.73l-.12.29Z"/><path class="cls-4" d="M110.61,36.68l.57-.39-.24.05Z"/><path class="cls-4" d="M108.77,34.64q-1.09.15-2.22.36l-1.7.38-.91.46-.87.41.27-.08.36-.08.81-.29c.51-.18,1-.33,1.54-.49s1-.29,1.55-.41Z"/><path class="cls-4" d="M112.29,36.3l.35-.13.61-.35-.57.13Z"/><path class="cls-4" d="M140,40.72h-.13l-.25,0,.45.22C140,40.8,140,40.75,140,40.72Z"/><path class="cls-4" d="M139.61,41.92a.83.83,0,0,1-.07-.13s.16.13.42.37l.3.29.33.28.75.67.32.31-.72-1.28-.08-.14h-.07c-.87-.5-1.73-1-2.57-1.38l.24.17A8.68,8.68,0,0,1,139.61,41.92Z"/><path class="cls-4" d="M138,43.13l.08.12.11.09v-.07Z"/><path class="cls-4" d="M135.1,41l.15.15c.17.16.34.34.51.52l-.43-1h0a11.71,11.71,0,0,1-1-1.12s.28.11.71.32l-.13-.3a5,5,0,0,1,.52.51l.34.19c.44.26.88.54,1.29.84h.06c.24.18.49.36.73.56l.72.61.69.65c.23.22.43.45.64.67l.35.4c-.07-.15-.13-.3-.19-.44h0l-.08-.07c-.25-.23-.47-.47-.69-.69-.44-.46-.84-.9-1.17-1.29s-.68-.84-.86-1.08l-.29-.14-1.27-.54-1.41-.39-.5-.13a10,10,0,0,1,.65.81A10.22,10.22,0,0,1,135.1,41Z"/><path class="cls-4" d="M135.15,53.8v.28c0,.1,0,.45.08.71a8.4,8.4,0,0,1,0,.87,3.93,3.93,0,0,1,.11-.7c.07-.41.14-.77.2-1.06-.14-.35-.29-.69-.44-1A3.7,3.7,0,0,1,135.15,53.8Z"/><path class="cls-4" d="M133.23,39.33a10.76,10.76,0,0,1,.8,1.4c.12.27.27.54.38.83l.14.36h0c-.22-.61-.43-1.18-.6-1.67h0v-.08l-.34-.51.26.19c-.1-.31-.18-.57-.23-.74l-.65-.19A3.38,3.38,0,0,1,133.23,39.33Z"/><path class="cls-4" d="M134.65,23.09l.37.07-.35.13-.38.13.32.1.15.08.8-.64.49-.36h-.18l-.84.11-.55.09a4.79,4.79,0,0,0-.6.11l-.57.14h.36A4.57,4.57,0,0,1,134.65,23.09Z"/><path class="cls-4" d="M138.94,62.84h0a1.49,1.49,0,0,0-.13-.39c-.28-.84-.59-1.68-.9-2.52a2.73,2.73,0,0,0,.13.51,14.71,14.71,0,0,1,.3,1.61l.12.35a9.78,9.78,0,0,1,.43,1.52c.07.31.12.62.16.93V63.06l-.06-.18Z"/><path class="cls-4" d="M136.48,53.53h0c.42,1,.83,2,1.22,3l.4.64c.29.46.6,1,.92,1.54-.39-.79-.78-1.6-1.19-2.42Z"/><path class="cls-4" d="M137.42,59v-.44l-.15-.39c-.09-.24-.19-.49-.29-.74v1.92a11.84,11.84,0,0,1,.49,1.86v-.64C137.45,59.92,137.43,59.35,137.42,59Z"/><path class="cls-4" d="M137.35,31.52c-.38.08-.76.13-1.11.2l-.23.05c-.62.28-1.23.53-1.79.82h-.11l.7-.12a11.82,11.82,0,0,1,1.46-.13l.61-.21c.51-.18,1.06-.31,1.62-.48s1.14-.3,1.74-.44l.92-.21-1.4.13Z"/><path class="cls-4" d="M129.92,43.63a5.4,5.4,0,0,1,.13.7,8.93,8.93,0,0,1,.09,1.27v2.76c0,.36,0,.72-.07,1.06v.19a.61.61,0,0,1,.07-.35c.06-.3.13-.55.19-.76a1.34,1.34,0,0,0,0-.49V44.69c-.13-.35-.28-.73-.44-1.14Z"/><path class="cls-4" d="M129.61,35.11a2.74,2.74,0,0,1,.39.09l.79-.44h-.2Z"/><path class="cls-4" d="M131.55,40.37a1,1,0,0,0-.11-.34l-.07.06a1.64,1.64,0,0,1,.14.22A.21.21,0,0,1,131.55,40.37Z"/><path class="cls-4" d="M131.21,41.69a1.22,1.22,0,0,0,0,.27,7.39,7.39,0,0,1,.33,1.31l.06.23.13.24v-.13a.82.82,0,0,0,.06.26c.19.37.4.75.6,1.13v-.16c-.09-.25-.17-.52-.26-.79-.2-.54-.39-1.11-.63-1.67Z"/><path class="cls-4" d="M132.71,39.58c-.13-.4-.23-.74-.3-1l-.24-.06a2.53,2.53,0,0,1-.15.66,3.91,3.91,0,0,1,.77.64A2.25,2.25,0,0,0,132.71,39.58Z"/><polygon class="cls-4" points="131.28 41.52 131.28 41.51 131.27 41.51 131.28 41.52"/><path class="cls-4" d="M133.18,38.81l-.39-.12.11.14Z"/><path class="cls-4" d="M134,46.36v.51s-.26-.53-.56-1.31l-.26-.7c0,.2.05.41.05.59s0,.47,0,.7v.16h0a1,1,0,0,0,.09.39c.33.64.65,1.29,1,2a24.12,24.12,0,0,1,1.47,2,27.28,27.28,0,0,1,1.48,2.36c.23.42.48.84.71,1.28-.35-.76-.71-1.54-1.09-2.32-.5-1.05-1-2.08-1.52-3.05Z"/><path class="cls-4" d="M131.47,26.38l.66-.63H132l-.31.22c-.47.33-1.1.74-1.73,1.14l-.06.13.14-.11A5.11,5.11,0,0,1,131.47,26.38Z"/><path class="cls-4" d="M131.37,31.68l.12-.08c-.47.15-.94.28-1.32.37l-.53.11a3.16,3.16,0,0,1-.11.6c.43-.27.84-.5,1.2-.69A6.47,6.47,0,0,1,131.37,31.68Z"/><path class="cls-4" d="M130.07,27.92l.23-.28h-.07l-.59.11h0c0,.12.05.25.07.38Z"/><path class="cls-4" d="M145.67,49.92c-.14-.29-.29-.59-.43-.89.07.22.12.42.17.63Z"/><path class="cls-4" d="M131.09,22.82c.15-.24.31-.48.47-.71l-.35.12h-.12l-.52.88.41-.28Z"/><path class="cls-4" d="M131.29,24.74l-.28.16-.09.17a4.73,4.73,0,0,1,1.33-.34,4.61,4.61,0,0,1,1.05,0l.21-.18.48-.36-.89.14c-.45.06-.9.11-1.29.14Z"/><path class="cls-4" d="M132.41,20.92l.24-.31-.36.31-.8.68h0a1.07,1.07,0,0,1,.19-.18A4.49,4.49,0,0,1,132.41,20.92Z"/><path class="cls-4" d="M130.37,24.1h-.15a.09.09,0,0,1,0,.07l.15-.09Z"/><path class="cls-4" d="M161.13,57.07a2.52,2.52,0,0,1,.4.4l-.47-.76h0c-.35-.32-.71-.64-1.09-1l-.22-.19c.38.42.72.82,1,1.2A2.5,2.5,0,0,1,161.13,57.07Z"/><path class="cls-4" d="M152.42,50.84a5.85,5.85,0,0,1,.83.74c.14.14.28.3.43.47V51.9l-.79-.92c-.5-.59-1-1.19-1.43-1.72l-.13-.09a11.85,11.85,0,0,1,1,1.33Z"/><path class="cls-4" d="M131.1,44.46l-.18-.41a4.34,4.34,0,0,1,.08.52,6.31,6.31,0,0,0,.2.76v-.69A.46.46,0,0,1,131.1,44.46Z"/><path class="cls-4" d="M143.19,44.48c-.18-.41-.33-.78-.44-1.06l-.49-.29q.21.27.42.57A8.1,8.1,0,0,1,143.19,44.48Z"/><path class="cls-4" d="M132.37,48c0,.41.07.83.09,1.25a11.45,11.45,0,0,0,.07,1.3v.18c.1-.78.2-1.52.29-2.15v-.94c-.23-.51-.46-1-.7-1.51A11.43,11.43,0,0,1,132.37,48Z"/><path class="cls-4" d="M133.67,42.39c-.25-.31-.49-.62-.74-.92.13.29.25.59.35.89h0l.67.83-.16-.44Z"/><path class="cls-4" d="M155.89,52.49l-.08-.06c.06.06.11.13.16.19Z"/><path class="cls-4" d="M157.4,54.92a1.09,1.09,0,0,1-.05-.17c0-.09-.06-.19-.08-.28h.08l-.49-.59c.15.24.29.5.43.75Z"/><path class="cls-4" d="M146.47,46l.62.54c.24.23.5.45.74.71l.73.78.46.57-.1-.18c-.14-.24-.21-.39-.21-.39a6.76,6.76,0,0,1,.85.67l-1.17-1.32-.48-.55-.17-.12L146,45.54l.22.22Z"/><path class="cls-4" d="M154.42,51.4h0l.08.11Z"/><path class="cls-4" d="M134.44,46l.39.54-.54-1.14-.48-1c.06.35.1.68.13,1Z"/><polygon class="cls-1" points="259.6 107.34 259.6 124.54 5.55 124.54 5.55 107.34 0 107.34 0 130.37 265.15 130.37 265.15 107.34 259.6 107.34"/><path class="cls-1" d="M88.29,65.23H7.62V80.92h.91V66H88.35A3.08,3.08,0,0,1,88.29,65.23Z"/><path class="cls-1" d="M170,65.23a3.69,3.69,0,0,1-.05.74h86.7v15h.9V65.23Z"/><path class="cls-1" d="M167,41.27a7.66,7.66,0,0,0-.83-1.05,12.18,12.18,0,0,0-4-2.68,23,23,0,0,0-3-1.11c-.87-.28-1.82-.53-2.79-.76h2.55a5.87,5.87,0,0,0,1.13-.1,4.92,4.92,0,0,0-1-.46,9.17,9.17,0,0,0-4.9-.2,3.58,3.58,0,0,0-.64.18c-.51-.07-1-.15-1.53-.21l-1.89-.17,1.43-.24,1.59-.29.6-.12a16.74,16.74,0,0,0-2.24-.15,21.15,21.15,0,0,0-2.3.09,9.72,9.72,0,0,0-1.29.13l-1.32.2-1.32.27-.6.14h-.55c-.33,0-.66.07-1,.1l-.57-.11a13.76,13.76,0,0,0-2.13-.25h-1.65c.6-.18,1.19-.36,1.79-.51l2.94-.08h4.47a6.55,6.55,0,0,0-1.36-.51,10.47,10.47,0,0,0-1.46-.29h0c.65-.1,1.27-.2,1.84-.25l1.57-.16c.46,0,.88-.08,1.22-.09l1.07-.07-1.06-.13c-.34,0-.75-.07-1.23-.08a14.19,14.19,0,0,0-1.6,0c-.6,0-1.22,0-1.9.08s-1.37.14-2.1.24a20.34,20.34,0,0,0-2.23.43l-2,.51L141,32.48l2.09-1,.79-.38-.86.2c-.54.13-1.32.34-2.23.64s-2,.67-3.08,1.12c-.55.24-1.13.47-1.7.74l-1.72.83c-.57.31-1.14.61-1.69.92s-1.07.64-1.59.94c-1,.64-1.92,1.26-2.68,1.83h-.12l-.18.08L130,37.09l3.47-2.36,1.15-.81.43-.32a12.15,12.15,0,0,0-1.84.64c-.31.12-.63.27-1,.43a3.23,3.23,0,0,0-.44,0,4.89,4.89,0,0,0-1.82.28,5.16,5.16,0,0,0-1.59.92l-.19.18.06-.44.63-.33c.5-.26,1-.48,1.5-.7.25-.09.48-.2.71-.28l.65-.25,1-.36.39-.14h-.42a4.57,4.57,0,0,0-.74,0l.1-.07a3.63,3.63,0,0,0-.87-.1.17.17,0,0,0-.1,0l.11-.05c.61-.28,1.24-.53,1.84-.75.3-.1.59-.22.87-.3l.79-.25,1.68-.47-.48-.06a7.06,7.06,0,0,0-1.3,0,9.2,9.2,0,0,0-1.81.27c-.32.09-.66.17-1,.29h-.37l1.36-.44c.69-.23,1.39-.42,2-.61l1-.25.86-.22,1.3-.32.5-.13-.39-.17a10.29,10.29,0,0,0-1.36,0,12.47,12.47,0,0,0-1.92.18c-.34.07-.71.12-1.06.22l-1.09.29-.32.11h-.4l.62-.54h.12c.49-.07.85-.16.85-.16l-.21-.14h.18l1.52-.38c.55-.13,1.13-.29,1.73-.42l1.73-.38c.55-.12,1.08-.24,1.5-.29a2.61,2.61,0,0,1,1,.07,1.27,1.27,0,0,1,.37.18l-.06-.09a1.71,1.71,0,0,0-.21-.26,2.27,2.27,0,0,0-1.12-.46,4.2,4.2,0,0,0-.79-.05h-.85a5.79,5.79,0,0,0-.91.11q-.47.07-.93.18c-.31.07-.61.16-.9.25a6.74,6.74,0,0,0-.86.3l-.53.22a6.49,6.49,0,0,1,.55-.36c.59-.38,1.18-.72,1.77-1.05a9,9,0,0,0,.91-.1c.39-.05.84-.13,1.31-.21l.72-.12.75-.12a16.51,16.51,0,0,1,2.72-.19,4.87,4.87,0,0,1,.93.05h.37a1.66,1.66,0,0,0-.3-.22,4.54,4.54,0,0,0-.9-.41,5.3,5.3,0,0,0-1.37-.28,7.79,7.79,0,0,0-1.6,0l-.28.05.36-.12c.33-.12.68-.25,1-.34a6,6,0,0,1,1.73-.31,2.77,2.77,0,0,1,1.29.32,2,2,0,0,1,.67.57,1,1,0,0,1,.17.27,1.34,1.34,0,0,0-.12-.3,2,2,0,0,0-.62-.7,2.81,2.81,0,0,0-1.36-.52,5.24,5.24,0,0,0-1.89.13,19.5,19.5,0,0,0-2.12.57c-.37.13-.76.25-1.14.4h0l1.23-1,.51-.43-.61.26a15.36,15.36,0,0,0-1.57.79c-.62.34-1.33.78-2.06,1.28a2.58,2.58,0,0,0-.68-.35,3.77,3.77,0,0,0-1.7-.15,3.81,3.81,0,0,0-1.52.58h-.07c.15-.21.32-.41.49-.62l.86-.24.89-.21a13.94,13.94,0,0,1,1.4.1l.55.06h.23l-.14-.19a1.62,1.62,0,0,0-.32-.32l.25-.05.29-.06-.27-.13h.29a1.86,1.86,0,0,0-.59-.53,3.22,3.22,0,0,0-1.54-.49h0c.08,0,.15-.08.22-.14s.16.08.25.1c.35.1.77.23,1.19.33l1.2.31.45.1h.19a1.56,1.56,0,0,0-.34-.6,2.07,2.07,0,0,0-.52-.46,2.53,2.53,0,0,0-.74-.31,2.62,2.62,0,0,0-.79-.08h-.12l.28-.21h.45l.73.07.8.12c.53.09,1.07.21,1.5.33l.54.15h.23l-.11-.2a1.92,1.92,0,0,0-.37-.48,2.87,2.87,0,0,0-.69-.51l-.14,0,.51,0c.69.1,1.37.22,1.91.34l.67.14h.27A1.84,1.84,0,0,0,141,23a3.5,3.5,0,0,0-.53-.49,4.14,4.14,0,0,0-.87-.49h.58l1.17.13a1.27,1.27,0,0,1,.55.08l.49.09.76.16.31.05-.21-.22a3.18,3.18,0,0,0-.65-.51,4.68,4.68,0,0,0-1-.5,5.41,5.41,0,0,0-1.31-.25.14.14,0,0,0-.09,0h.17a9.33,9.33,0,0,1,1.83,0,7.42,7.42,0,0,1,1.4.22,9.07,9.07,0,0,1,.89.26l.31.11-.29-.16a5.48,5.48,0,0,0-.85-.4,9.17,9.17,0,0,0-3.32-.57,11.14,11.14,0,0,0-1.73.17l1-.47.73-.37.19-.1.66,0h.52l-.5-.15a3.9,3.9,0,0,0-.59-.14,5.23,5.23,0,0,0-.78-.11,9.53,9.53,0,0,0-1.85,0l.32-.21.48-.31,1.35-.23c.9-.14,1.8-.25,2.5-.33l.86-.11.33-.05-.31-.14a5.2,5.2,0,0,0-.85-.26,5.77,5.77,0,0,0-1.24-.16,7.73,7.73,0,0,0-1.44.08,8.32,8.32,0,0,0-1.39.35,6.57,6.57,0,0,0-1.14.53,4.75,4.75,0,0,0-1,.73l.33-.05.85-.15.76-.15-.19.07a7.12,7.12,0,0,0-.86.36l-.35.15-.27.05c-.38.07-.75.18-1.13.28l-.23.08.27-.22a26.1,26.1,0,0,1,4-2.68l2.11-.05h2.94a2.34,2.34,0,0,1,.89.26,1.34,1.34,0,0,1,.31.22v-.09a.84.84,0,0,0-.13-.27,2,2,0,0,0-.88-.66,4.15,4.15,0,0,0-.68-.22l-.32-.06c.47,0,1,.08,1.48.1a16.69,16.69,0,0,0,2.35,0,10.38,10.38,0,0,0,1.11-.09,5.36,5.36,0,0,0-1-.47,8.87,8.87,0,0,0-2.39-.46h-.72l.72-.12A13,13,0,0,1,149,15a10.7,10.7,0,0,1,1.37.27l-.34-.13a7.26,7.26,0,0,0-1-.32,12.21,12.21,0,0,0-3.71-.39,15.33,15.33,0,0,0-5.17,1.18c-.51.21-1,.44-1.51.7a7.24,7.24,0,0,0-1,.41l.7-.62.64-.53.58-.48.89-.71c.22-.17.34-.28.34-.28a1.27,1.27,0,0,0-.43.11,6.2,6.2,0,0,0-1.09.4,11.36,11.36,0,0,0-1.45.8c-.25.18-.51.35-.75.56l-.74.62a6.31,6.31,0,0,0-.67.7c-.21.24-.4.49-.59.72a10.92,10.92,0,0,0-.75,1.16c-.56.47-1.12,1-1.65,1.46h0c.44-.57.88-1.14,1.27-1.7a17.82,17.82,0,0,0,1-1.55,16.87,16.87,0,0,0,.91-1.6A17.68,17.68,0,0,0,134.52,17c-.38.39-.82.85-1.27,1.36s-.91,1.07-1.36,1.64l-.66.85c-.22.28-.42.58-.62.85-.39.56-.74,1.09-1,1.55a16.78,16.78,0,0,0-.9,1.6s.38-.31.94-.85c-.29.38-.56.76-.82,1.14l-.3.36-.15.22a.93.93,0,0,1,.06-.43c.15-.36.31-.73.48-1.09.33-.72.68-1.42,1-2.08.17-.32.34-.64.49-.94l.46-.85c.29-.52.53-1,.69-1.27s.27-.49.27-.49-.16.13-.42.37a11.32,11.32,0,0,0-1,1.08,16.78,16.78,0,0,0-1.24,1.67c-.19.33-.41.66-.6,1s-.37.71-.55,1.08-.32.75-.46,1.12-.26.75-.39,1.11a14.91,14.91,0,0,0-.47,2,8.28,8.28,0,0,0-.13,1h0c-.11.24-.2.45-.29.66a3.25,3.25,0,0,0-.12-.77c.18-.8.39-1.59.58-2.33s.4-1.47.57-2.08l.41-1.48c.1-.37.15-.58.15-.58l-.33.5a13.89,13.89,0,0,0-.76,1.36,20.76,20.76,0,0,0-.86,2c-.13.38-.28.77-.39,1.18-.06.2-.12.41-.17.62l-.11-.32s-.11.56-.18,1.38v.3c0,.1-.07.35-.1.52-.09.42-.12.83-.18,1.23a18.52,18.52,0,0,0-.12,2.11l-.43-.57c0-.27.1-.65.14-1.12a14.06,14.06,0,0,0,0-1.59v-.9l-.09-.92c-.05-.31-.09-.61-.14-.92s-.12-.59-.18-.87a15.93,15.93,0,0,0-.43-1.54,9.11,9.11,0,0,0-.6-1.44V25c0,.46.07,1,.13,1.57v.27a2.12,2.12,0,0,0-.11-.21,5.07,5.07,0,0,0-.11.68c-.15-.27-.26-.44-.26-.44a5.55,5.55,0,0,0-.08,1v.38a11.22,11.22,0,0,0,0-1.16,4.34,4.34,0,0,0-.13-.93c-.07-.31-.14-.62-.22-.94a9,9,0,0,0-.3-.92c-.11-.3-.25-.58-.37-.86a9.64,9.64,0,0,0-.84-1.42,7.1,7.1,0,0,0-.73-.91l-.32-.31a.94.94,0,0,0,.15.42l.41,1.06.26.71.27.78q.16.51.33,1.05l.06.44.06.41c-.08-.19-.15-.38-.23-.56-.22-.53-.45-1-.66-1.45a6.53,6.53,0,0,0-.43-.79c-.13-.22-.21-.52-.33-.79s-.29-.64-.47-1l-.53-1c-.2-.31-.39-.63-.6-.93l-.62-.87a17,17,0,0,0-1.22-1.45,10.88,10.88,0,0,0-1.36-1.27s.08.17.24.45.39.68.67,1.15l1,1.6.16.28a.76.76,0,0,0-.42-.23.43.43,0,0,0-.29.07,10.25,10.25,0,0,0-.71-1c-.27-.33-.38-.49-.6-.72s-.44-.47-.67-.7-.47-.44-.72-.65-.49-.39-.73-.58a11.45,11.45,0,0,0-1.41-.88,8.53,8.53,0,0,0-1.06-.5l-.42-.15L110,14l.85.79,1.18,1.09c.41.4.86.81,1.29,1.24a8.8,8.8,0,0,0-.9-.6,3.27,3.27,0,0,0-.35-.3l-.72-.54-.34-.22a9.81,9.81,0,0,0-1.59-1.21,9.46,9.46,0,0,0-2.28-1,5.53,5.53,0,0,0-1.13-.23,10.32,10.32,0,0,0,.88.73,1.09,1.09,0,0,1,.17.13H107s.12.1.34.25l.88.61.38.26h-.44l-.2-.17a4.33,4.33,0,0,0-1.58-.78A4.53,4.53,0,0,0,104.6,14a2.45,2.45,0,0,0-.8.23c.24.12.49.23.74.33l.57.21H105a3.86,3.86,0,0,0-1.31.11,2.64,2.64,0,0,0-.61.23,2.12,2.12,0,0,0,.56.33,4.35,4.35,0,0,0,1,.27l-.17.08a4.83,4.83,0,0,0-1.11.67l-.35.29.38-.25a6.33,6.33,0,0,1,1.15-.54l.61-.18a1.91,1.91,0,0,0-.28.4,1.26,1.26,0,0,0-.17.57h.17l.37-.11a6.14,6.14,0,0,0,1-.4h.07a.28.28,0,0,0,0,.4h0a1.32,1.32,0,0,0-.14.13l-.16.19h2.52a4.93,4.93,0,0,1,.87.12l.41.07.37.08.59.14.24.06a2.39,2.39,0,0,0-.13-.21,3,3,0,0,0-.22-.28l.25.21.86.7-.43-.15-.45-.12.28.23c-.24-.06-.48-.1-.71-.14a6.51,6.51,0,0,0-1.25-.08,4.59,4.59,0,0,0-1.22.16l.31.19.82.28,2.41.79,1.89.66.06.05.33.27c-.26-.1-.51-.17-.76-.24a7.43,7.43,0,0,0-1.61-.27,5.53,5.53,0,0,0-1.15,0l-.43.06.42.14c.27.08.62.19,1,.34l.69.24c.25.08.49.2.76.29.51.22,1,.46,1.58.73l.9.49.36.3a7.18,7.18,0,0,0,1.36.81l.17.11.09.06.29.28.5.48c.1.14.19.28.29.41L118,24c-.26-.19-.52-.37-.79-.54s-.56-.33-.84-.47l-.83-.4A10.49,10.49,0,0,0,114,22a8.82,8.82,0,0,0-1.14-.22h-.44l.38.22,1,.56,1.37.78.75.45-.25-.11a7.24,7.24,0,0,0-1.19-.4,9.14,9.14,0,0,0,.89.87l.12.1-.42-.17a10.28,10.28,0,0,0-1.34-.39l-.51-.1.44.28,1.16.72.77.48c.27.17.54.37.83.55l.29.2c.14.16.3.34.49.53s.65.68,1,1,.8.77,1.22,1.17l.16.14c-.31-.22-.64-.42-.94-.62a18.39,18.39,0,0,0-1.84-1,13.13,13.13,0,0,0-1.9-.79s.15.14.44.36l1.16.91,1.65,1.25.39.3h-.06l.3.34.64.71-.34-.23a18.73,18.73,0,0,0-1.66-1,12.44,12.44,0,0,0-1.73-.73l.39.34,1,.86,1.47,1.19,1.72,1.33,1.66,1.37.27.22-.32-.14h0l-.19-.17c-.26-.2-.52-.41-.78-.59l-.79-.53a12.69,12.69,0,0,0-1.41-.75c-.38-.33-.62-.52-.62-.52l.17.32a7,7,0,0,0-1.17-.38l.34.29.91.73.6.48.09.13c.3.45.66,1,1.07,1.51l.09.12c-.3-.15-.58-.29-.84-.39s-.3-.36-.47-.53l-.76-.8-.81-.74c-.27-.25-.56-.46-.83-.68a13.76,13.76,0,0,0-1.55-1.07,11.07,11.07,0,0,0-1.64-.85l.36.37.94.93,1.33,1.28L117.38,33l.68.67-.41-.28-1.07-.64a1.64,1.64,0,0,0-.21-.25,13.07,13.07,0,0,0-2.2-2.07,14.29,14.29,0,0,0-2.56-1.5,7.57,7.57,0,0,0-1.31-.47c.32.33.65.65,1,.95.61.53,1.45,1.21,2.3,1.85l.3.22-.32-.13c-.54-.19-1.06-.37-1.57-.52a4.22,4.22,0,0,0-.47-.56A6.25,6.25,0,0,0,109.85,29a6.47,6.47,0,0,0-2-.67,4.2,4.2,0,0,0-1-.05,7.38,7.38,0,0,0,.77.58,18.84,18.84,0,0,0,1.75,1c.37.2.76.38,1.12.54l-.8-.15a7,7,0,0,1-.82-.13l-.76-.07a8.24,8.24,0,0,0-1.22-.06h-1.06l1,.19a6.49,6.49,0,0,1,1.18.24h.17a4.53,4.53,0,0,0-1.25.33,2.63,2.63,0,0,0-.58.35,3.43,3.43,0,0,0,.64.21,4.5,4.5,0,0,0,1.37.07,4.15,4.15,0,0,0,1.34-.35l.27-.14c.39.12.8.25,1.22.4H111a8.27,8.27,0,0,0-1.85.27,4.12,4.12,0,0,0-.83.3,4.18,4.18,0,0,0,.85.26,8.3,8.3,0,0,0,1.86.15,8.18,8.18,0,0,0,1.85-.27H113l.21.08.84.4a5.75,5.75,0,0,0-.83,0,8,8,0,0,0-1.88.23,4.35,4.35,0,0,0-.86.29,4.51,4.51,0,0,0,.86.27,8.54,8.54,0,0,0,1.89.19,8,8,0,0,0,1.88-.23l.21-.06c.43.22.85.47,1.26.73h-1.21a16,16,0,0,0-2.39.11,10.57,10.57,0,0,0-1.13.14,5.17,5.17,0,0,0,1.07.42,9,9,0,0,0,2.47.31h.4a4.45,4.45,0,0,0-1,.16,4.92,4.92,0,0,0-.92.29,5.09,5.09,0,0,0,.92.27,9.64,9.64,0,0,0,2,.21,10.38,10.38,0,0,0,2-.22h.13c.23.17.44.35.65.53l.38.34.7.62a7,7,0,0,0-.79-.19,11.27,11.27,0,0,0-4.33.1,5.76,5.76,0,0,0-1,.3,4.9,4.9,0,0,0,1,.26,11.62,11.62,0,0,0,4.32-.09,9.32,9.32,0,0,0,.9-.27l.53.47h0l.41.39c-.53-.06-1.14-.12-1.75-.14s-.92,0-1.35,0c-1.52-.17-3.17-.28-4.9-.3a38.29,38.29,0,0,0-4.11.15c-1.4.15-2.83.32-4.21.57a42.39,42.39,0,0,0-4.13,1.06,35.54,35.54,0,0,0-3.68,1.51,29.61,29.61,0,0,0-6.23,3.82c-.41.34-.81.66-1.18,1l-1,.95c-.61.62-1.13,1.16-1.53,1.64s-.69.86-.9,1.12l-.31.4.35-.37c.23-.24.56-.6,1-1s1-.93,1.63-1.49l1.06-.85.3-.22a5.67,5.67,0,0,0-.5.68,7.9,7.9,0,0,0-1,2.33,5.07,5.07,0,0,0-.16,1.16l.2-.26.47-.67c.38-.56.86-1.29,1.33-2s.94-1.47,1.29-2c.12-.2.22-.36.3-.51.39-.25.78-.5,1.19-.74-.15.15-.3.29-.42.43a5.13,5.13,0,0,0-.73,1l.2-.09a3.11,3.11,0,0,0-.23.28,9.48,9.48,0,0,0-.78,1.2,6.46,6.46,0,0,0-.5,1.14,5.31,5.31,0,0,0-.29,1.19s.08-.08.22-.25.34-.39.56-.67c.44-.55,1-1.28,1.57-2,.32-.41.63-.82.92-1.21l.64-.29c-.2.26-.39.52-.56.78a7.84,7.84,0,0,0-.66,1.29,5.86,5.86,0,0,0-.33,1l-.08.38s.1-.1.26-.29l.63-.77L95.13,46l1-1.17c.33-.39,1-1,1.44-1.5l.63-.2.72-.23h-.06a9.52,9.52,0,0,0-1.11,1.34A8,8,0,0,0,97,45.51a6,6,0,0,0-.37,1c-.06.24-.09.39-.09.39l.26-.31.67-.79.45-.51c.15-.19.33-.37.5-.57.35-.38.73-.78,1.12-1.17s1.08-1,1.58-1.47l1-.33a8.69,8.69,0,0,0-.77.46,9.45,9.45,0,0,0-1.07.71,9.34,9.34,0,0,0-1,1.08,8.31,8.31,0,0,0-.68,1.06,5.28,5.28,0,0,0-.48,1.15l.26-.22c.17-.14.4-.34.66-.58l.49-.45c-.12.19-.23.39-.33.59S99,46,99,46s.13-.1.34-.29l.93-.75c.36-.3.77-.66,1.21-1l.06-.05a10.63,10.63,0,0,0-.77,1,7.12,7.12,0,0,0-.71,1.3l.32-.25.81-.67,2.36-2,1.54-1.34h.2a9.22,9.22,0,0,0-2.13,2.34,6.89,6.89,0,0,0-.49.93c-.1.23-.15.37-.15.37s.12-.09.31-.26l.76-.67c.31-.28.68-.6,1.07-.93s.81-.67,1.24-1c.66-.52,1.35-1,1.94-1.44l.38-.1.5-.12a11.91,11.91,0,0,0-2,1.53,12,12,0,0,0-2,2.39,6.61,6.61,0,0,0-.67,1.26s.12-.08.32-.24.46-.38.77-.66c.55-.47,1.23-1.09,1.93-1.73l-.38.48a13,13,0,0,0-.94,1.5,8.27,8.27,0,0,0-.51,1.14c-.11.28-.16.45-.16.45s.12-.12.32-.35l.82-.92.53-.6.61-.67c.43-.45.87-.94,1.34-1.4l1.4-1.36.5-.46.91-.16.28,0a2.62,2.62,0,0,0-.34.24c-.24.17-.47.37-.7.56a6.34,6.34,0,0,0-.63.64,5.94,5.94,0,0,0-.55.67,7.87,7.87,0,0,0-.81,1.3,5.8,5.8,0,0,0-.4,1c0,.13-.08.26-.11.4s.11-.11.28-.31l.7-.78.46-.51c.17-.18.36-.36.53-.55l.6-.59-.25.25c-.27.28-.5.58-.74.87a14.54,14.54,0,0,0-1.27,1.55,13.64,13.64,0,0,0-.63,1.27c-.13.32-.19.5-.19.5l.36-.4.92-1,.62-.68c.22-.25.47-.48.7-.75.5-.5,1-1,1.59-1.54s1.12-1,1.66-1.46c.28-.22.54-.45.8-.64l.72-.57.28-.21,1.24-.2c1-.16,1.91-.29,2.81-.42h.2l-.5.2a12.35,12.35,0,0,0-1.77.52h0l.15-.13a7.52,7.52,0,0,0-1.52.5,13.4,13.4,0,0,0-1.46.75c-.25.16-.52.31-.77.5l-.77.57c-.26.2-.49.41-.72.62s-.44.44-.66.65a13.48,13.48,0,0,0-1,1.26,8.28,8.28,0,0,0-.82,1.37l.35-.27.88-.72,1.22-1c.45-.37.92-.76,1.41-1.14s1-.76,1.41-1.12l.4-.3h.27c-.32.24-.62.49-.93.74s-.62.56-.92.85-.56.59-.83.87a16.57,16.57,0,0,0-1.31,1.69,13.8,13.8,0,0,0-.78,1.29l-.25.51.41-.4,1-1,.71-.68.79-.76c.52-.48,1.08-1,1.65-1.48l.38-.15c.54-.23,1.22-.53,1.91-.86l-.26.19-.8.68-.76.72c-.26.24-.48.5-.7.74a12.92,12.92,0,0,0-1.13,1.41,10.44,10.44,0,0,0-.93,1.5s.15-.11.38-.31.57-.47,1-.82l2.83-2.51c1-.91,2-1.83,2.82-2.52l.46-.42c-.1.22-.2.43-.32.64s-.49.35-.72.55-.67.55-1,.84l-.16.15-.15.09a5.78,5.78,0,0,0-1.26,1,2.92,2.92,0,0,0-.48.63h.13a21.12,21.12,0,0,0-1.35,1.65A15,15,0,0,0,114,48.75l.46-.4,1.16-1.07,1.63-1.5,1.7-1.53a6.07,6.07,0,0,0,1-.82,1.72,1.72,0,0,0,.31.6l-.12.1c-.25.22-.47.47-.69.7a10.08,10.08,0,0,0-1.08,1.36,7,7,0,0,0-.63,1.05l-.2.43.36-.31.89-.8.57-.5h0a13.85,13.85,0,0,0-.93,1.21c-.51.39-1,.78-1.36,1.12a9.44,9.44,0,0,0-1,1s.27-.08.68-.25l-.08.09c-.16.09-.33.17-.49.27s-.5.28-.74.46l-.73.53-.68.59c-.23.19-.42.41-.62.61a10.33,10.33,0,0,0-1,1.19,7.45,7.45,0,0,0-.76,1.31l.33-.25.84-.67,1.16-1,.74-.6-.31.46a11.81,11.81,0,0,0-3.94,4.22,6.34,6.34,0,0,0-.55,1.28l.29-.26c.18-.16.43-.4.71-.68.57-.56,1.29-1.3,2-2.06v.06c-.41.62-.81,1.27-1.19,1.94a1.44,1.44,0,0,0-.25.18,9.3,9.3,0,0,0-3.24,4.38,5.14,5.14,0,0,0-.3,1.23l.23-.26c.14-.17.34-.41.56-.7.45-.58,1-1.34,1.59-2.11l.15-.2c-.17.39-.34.79-.5,1.2-.15.23-.31.47-.46.72s-.39.65-.56,1-.35.7-.53,1a7.75,7.75,0,0,0-.45,1.09c-.14.36-.26.73-.38,1.08a16.74,16.74,0,0,0-.51,2,12.29,12.29,0,0,0-.25,2s.09-.17.23-.49l.56-1.3.78-1.82.21-.48a4.56,4.56,0,0,1-.14.7,1.22,1.22,0,0,0,0,.39,11.37,11.37,0,0,0-.63,1.32c-.1.26-.22.51-.31.79s-.19.55-.28.83l-.24.84c-.08.28-.13.56-.19.83a14.88,14.88,0,0,0-.23,1.49,9.12,9.12,0,0,0-.06,1.48s.28-.54.6-1.35c.17-.41.35-.88.52-1.39s.33-1,.5-1.5v.93a4.23,4.23,0,0,0-.37.62,7.24,7.24,0,0,0-.71,2.18,7.33,7.33,0,0,0,0,2.29,4.38,4.38,0,0,0,.28,1,8.73,8.73,0,0,0,.28-1c.13-.6.28-1.37.4-2.15.06-.36.11-.72.16-1.07a14,14,0,0,0,.13,1.6h0a5.86,5.86,0,0,0-.33,1,8.83,8.83,0,0,0-.21,2.81,10.66,10.66,0,0,0,.26,1.48,8,8,0,0,0,.44,1.24,5.34,5.34,0,0,0,.64,1.11v-.35a4.17,4.17,0,0,0-.08-.91c-.07-.73-.17-1.69-.27-2.66,0-.56-.09-1.11-.13-1.62.09.45.18.89.27,1.31s.26,1,.41,1.51.3.91.44,1.33c.3.83.58,1.55.85,2.12s.49,1,.64,1.32l.24.46-.19-.48c-.12-.32-.31-.78-.51-1.37s-.39-1.14-.6-1.85c0,.1.11.19.15.29a11.17,11.17,0,0,0,.85,1.3,7.71,7.71,0,0,0,1,1.14,1,1,0,0,0-.13-.4,9.89,9.89,0,0,1-.38-1c-.15-.41-.35-.89-.56-1.4s-.41-1.06-.62-1.6l-.21-.57a9.81,9.81,0,0,0,.56,1,10.33,10.33,0,0,0,.74,1l.31.36a1.17,1.17,0,0,0-.14-.45L111.33,79l-.57-1.64c-.2-.6-.42-1.23-.62-1.87s-.39-1.28-.57-1.89-.34-1.18-.48-1.66c0-.18-.1-.35-.15-.5V70.17q0,.43.12.87c.06.34.13.69.2,1s.17.68.27,1,.22.66.32,1a16,16,0,0,0,.72,1.64,9.57,9.57,0,0,0,.92,1.5,1.66,1.66,0,0,0-.1-.47l-.29-1.22c-.13-.5-.27-1.08-.43-1.71s-.31-1.28-.46-1.94-.29-1.33-.43-2h0c.1.33.21.63.32.91.13.52.27,1,.42,1.42a11.26,11.26,0,0,0,.59,1.49c.16.35.27.55.27.55a2.9,2.9,0,0,0-.09-.6c-.09-.38-.13-.92-.23-1.57a7.07,7.07,0,0,0-.14-1c0-.33-.1-.76-.15-1.16-.09-.8-.18-1.66-.24-2.51v-.88c.06.24.13.46.2.67a6.51,6.51,0,0,0,.14,1.08c.06.35.14.71.21,1a12.86,12.86,0,0,0,.55,1.8,11,11,0,0,0,.55,1.21c.15.29.24.44.24.44a3,3,0,0,0-.06-.5c-.06-.32-.11-.76-.19-1.29a7.09,7.09,0,0,0-.12-.86l-.13-1a8.27,8.27,0,0,0-.12-1,7.06,7.06,0,0,1,0-.92V65.86a22.19,22.19,0,0,1,.08-2.28l.14-.44c.13-.41.25-.91.36-1.44V64a19,19,0,0,0,.22,2.38c.11.69.24,1.26.34,1.65s.18.62.18.62V64c0-.85.09-1.75.18-2.66s.16-1.68.25-2.48a2,2,0,0,1,.11-.49c.19-.81.42-1.6.64-2.35.12-.37.22-.74.34-1.08s.22-.66.32-1l.51-1.45h0c.2-.25.4-.5.61-.74-.07.16-.12.3-.17.44l-.09.16c-.17.35-.37.7-.52,1.09l-.45,1.15a10.63,10.63,0,0,0-.34,1.19c-.1.39-.17.8-.25,1.18a12.44,12.44,0,0,0-.18,2.11,10.76,10.76,0,0,0,.07,1.5,1.64,1.64,0,0,0,.08.56s.11-.52.27-1.35v.11a5.69,5.69,0,0,0,.07.71,1.75,1.75,0,0,0,.09.61,2.74,2.74,0,0,1,.1-.61c.1-.39.15-.93.27-1.59.07-.32.14-.67.21-1s.18-.76.26-1.16c.2-.79.43-1.63.71-2.46s.57-1.64.88-2.41c.12-.27.23-.54.34-.8l.26-.39c.44-.67.84-1.36,1.15-1.92l.22-.2c-.12.19-.25.38-.36.58s-.4.68-.59,1a10.65,10.65,0,0,0-.53,1.07c-.16.36-.32.71-.46,1a18.33,18.33,0,0,0-.67,1.93,12.64,12.64,0,0,0-.42,1.94l.27-.48c.16-.3.4-.73.67-1.26l.91-1.74a6.88,6.88,0,0,0-.14,1.11s.19-.25.44-.65a15.68,15.68,0,0,0-.72,2.71,8.54,8.54,0,0,0-.13,1.43s.1-.15.24-.41c0,.21-.07.41-.09.62a6.94,6.94,0,0,1-.07.94,9.24,9.24,0,0,0,.09,1.66,9.06,9.06,0,0,0,.25,1.15l.14.42c0-.15,0-.29,0-.44l.12-1.14a3.47,3.47,0,0,1,.09-.75,1.63,1.63,0,0,1,.08-.61v.47a12.34,12.34,0,0,0,.14,1.6,12.65,12.65,0,0,0,.22,1.35,8.52,8.52,0,0,0,.23,1c.16.56.26.88.26.88l-.07-.91V60.94a5.31,5.31,0,0,0,.44.81V60.66c0-.63,0-1.45-.06-2.27v-.2a8.33,8.33,0,0,0,.43,1.18c.12.27.2.42.2.42v-.47A9.78,9.78,0,0,0,120,58.1V54.47a11.15,11.15,0,0,1,.09-1.77v1.62a17.25,17.25,0,0,0,.21,1.76,9.52,9.52,0,0,0,.43,1.67v-.47c.1-.41.18-.82.24-1.24s-.36-1.09.25-1.72c0,.11-.14.22-.14.33.06,1.13.15,1.87.15,1.87a4.17,4.17,0,0,1,.1-.6c0-.32.11-.78.21-1.33a8.82,8.82,0,0,1,.14-1,2.31,2.31,0,0,0,.61.3,2,2,0,0,0,1.2,0h.06a2.73,2.73,0,0,0,.62-.3,2.51,2.51,0,0,0,1.13.64,3.47,3.47,0,0,0,.64.06c.25,0,.23-.06.85-.14v.05a1,1,0,0,1-.1.49,1.66,1.66,0,0,1,.12-.45v-.19a2.26,2.26,0,0,0,1-.86.61.61,0,0,0,0,.19V55.2a12.19,12.19,0,0,0,.12,1.79,12.27,12.27,0,0,0,.42-1.69c0,.29-.05.59-.07.89a21.45,21.45,0,0,0,0,3,10.47,10.47,0,0,0,.2,1.35,9.89,9.89,0,0,0,.36-1.32,20.16,20.16,0,0,0,.34-2.44c0,.42.06.83.06,1.22,0,.81,0,1.57.06,2.22s0,1.2.06,1.59a1.61,1.61,0,0,1,0,.61,18.27,18.27,0,0,0,.48-2.07c.08-.29.16-.61.23-1s.11-.52.16-.8a4.38,4.38,0,0,0,.09.66v.25a2,2,0,0,1-.06.6c-.1.83-.17,1.61-.23,2.28-.12,1.33-.14,2.24-.14,2.24a18,18,0,0,0,.7-2.15c.06-.21.12-.44.18-.68v.07a11.73,11.73,0,0,0,.43-1.12h0a6.27,6.27,0,0,1-.11.79l-.17,1.2a1.51,1.51,0,0,1-.06.46s.1-.14.25-.4a9.46,9.46,0,0,0,.52-1.12,10.59,10.59,0,0,0,.7-1.71c.06-.31.14-.64.18-1s.08-.68.11-1,0-.68,0-1a5.65,5.65,0,0,0-.06-1,11.07,11.07,0,0,0-.31-1.72h0v-.74a.83.83,0,0,0,.14.32l.5,1.16c0,.49-.07,1-.12,1.65s-.09,1.35-.15,2-.13,1.38-.18,2-.13,1.26-.18,1.78-.08,1-.11,1.28a2.3,2.3,0,0,0,0,.5,9,9,0,0,0,.45-1c-.07.56-.14,1.12-.21,1.65-.1.7-.19,1.36-.27,1.92s-.12,1-.17,1.36a1.4,1.4,0,0,0,0,.53,13,13,0,0,0,.77-1.76,17.81,17.81,0,0,0,.56-1.89c.08-.35.18-.71.23-1.08h0v.73a16.87,16.87,0,0,0,.06,1.8,14.79,14.79,0,0,0,.19,1.76,17.18,17.18,0,0,0,.37-1.73c.09-.53.17-1.14.24-1.79s.12-1.36.16-2.06v-2a16.87,16.87,0,0,0-.06-1.8V58.6a.75.75,0,0,0,.11.28v1.79c0,.92,0,1.9-.06,2.88s-.1,2-.15,2.87c0,.45-.07.9-.1,1.32s-.07.82-.1,1.18c-.06.74-.12,1.36-.15,1.79s0,.69,0,.69l.24-.65a17.28,17.28,0,0,0,.51-1.73,24.22,24.22,0,0,0,.5-2.51c.06-.47.14-1,.17-1.44a4.14,4.14,0,0,1,.08-1v.42l-.14,1.43v2.9l-.07,1.45-.09,1.44L135,74.14l-.13-.26a5.57,5.57,0,0,0,.1.82l.08.52.19-.53c.17-.47.32-.94.45-1.42l.09-.43v.29a14.69,14.69,0,0,1-.12,1.49,2.81,2.81,0,0,0,0,.57l.22-.53a12.16,12.16,0,0,0,.48-1.44,17.43,17.43,0,0,0,.44-2v.61c0,.22,0,.45,0,.67a2.07,2.07,0,0,1-.26,1,1.49,1.49,0,0,1-.24.32h.1a.76.76,0,0,0,.28-.15,1.86,1.86,0,0,0,.67-1c0-.11.07-.23.1-.34a12.46,12.46,0,0,1,0,1.37c0,.75-.07,1.45-.11,2l-.08,1.46v.56s.09-.19.21-.52a11.71,11.71,0,0,0,.45-1.42c.06-.21.11-.45.17-.7a5.85,5.85,0,0,0,.07.72,5.21,5.21,0,0,0,.21,1,5.89,5.89,0,0,0,.35-.91,10.34,10.34,0,0,0,.35-2,10.12,10.12,0,0,0-.06-2.06,5.74,5.74,0,0,0-.21-1,5.24,5.24,0,0,0-.28.69V70.11c0-.2,0-.41,0-.61l.22.67q.34,1.14.69,2.22v.2c0,.49,0,1.08-.06,1.7a.86.86,0,0,0-.1-.16,5.42,5.42,0,0,0-.13.9c0,.54.11,1.24.11,1.92h0c0,.45,0,.9-.08,1.33,0,.63-.08,1.22-.11,1.73s-.06.94-.07,1.24,0,.49,0,.49a10.81,10.81,0,0,0,.64-1.63c.1-.31.19-.67.28-1a5.86,5.86,0,0,0,.3.55,4,4,0,0,0,.13-.9,8.53,8.53,0,0,0-.1-1.89V75.24q.16.62.33,1.2v.23c0,.75-.1,1.73-.14,2.7s-.09,1.95-.11,2.7v1.27a5.9,5.9,0,0,0,.56-1.16,11.38,11.38,0,0,0,.35-1.27,9.82,9.82,0,0,0,.19-1.43c.34,1.31.63,2.44.83,3.31.31,1.28.48,2,.48,2l-.3-2c-.09-.65-.23-1.43-.4-2.33s-.34-1.92-.59-3c-.18-.83-.38-1.71-.6-2.62.3.57.61,1.19.92,1.82.48,1,.92,2,1.24,2.78l.41,1,.16.37v-.4a6.25,6.25,0,0,0,0-1.06,9,9,0,0,0-.29-1.46,11.46,11.46,0,0,0-.61-1.6,10.44,10.44,0,0,0-.87-1.48,9.07,9.07,0,0,0-1-1.14c-.13-.13-.24-.23-.36-.33-.17-.69-.35-1.39-.55-2.1l.43.79,1.09,2c.34.62.68,1.2,1,1.7.58,1,1,1.65,1,1.65a14.89,14.89,0,0,0-.51-1.88c-.18-.55-.42-1.19-.71-1.85-.15-.33-.29-.68-.47-1l-.53-1-.59-1c-.18-.33-.4-.63-.6-.94a13,13,0,0,0-1-1.32c-.24-.79-.49-1.59-.77-2.39l-.06-.17.39.77c.48.92,1,1.84,1.44,2.68s.93,1.63,1.34,2.3c.81,1.32,1.43,2.17,1.43,2.17s-.33-1-.93-2.43c-.3-.72-.66-1.55-1.08-2.43-.21-.45-.43-.92-.66-1.39s-.31-1.21-.63-2.2c-.1-.31-.22-.64-.34-1l-.12-.67a18.91,18.91,0,0,0-.48-2c-.24-.8-.53-1.79-.9-2.8-.16-.4-.31-.81-.48-1.22h0s-.2-.82-.61-2c-.2-.59-.46-1.27-.75-2s-.64-1.48-1-2.23l-.56-1.1h0l.55.44s-.28-.51-.77-1.25a2.21,2.21,0,0,0-.09-.49c.2.3.4.6.59.9l.3.49c.31.72.56,1.2.56,1.2V51.3l.33.58c.34.61.61,1.13.8,1.5s.31.58.31.58a2.58,2.58,0,0,0-.12-.65c0-.2-.1-.44-.19-.72a7.84,7.84,0,0,0-.29-.94,16.75,16.75,0,0,0-1-2.25,1.09,1.09,0,0,1-.08-.15c-.08-.4-.19-.83-.32-1.27l.77,1.24v.08c.06.18.14.36.21.55l.19.55.39,1.12c.12.34.24.69.37,1h-.27l.38.14h.1V51.52l.12.2c.18.35.36.69.54,1s.32.62.47.9L138.7,55c.17.33.28.52.28.52a2.52,2.52,0,0,0-.1-.59,11.23,11.23,0,0,0-.37-1.52v-.08a1.68,1.68,0,0,0-.07-.57,2.61,2.61,0,0,1-.09-.51l1.74,3.08c.33.57.62,1,.82,1.38a2.66,2.66,0,0,0,.33.52,17.56,17.56,0,0,0-.64-2.14,1.26,1.26,0,0,0-.14-.38c.1.19.2.35.27.49l.27.44a11.49,11.49,0,0,0-.4-1.83v-.13c.14.24.28.49.42.72l.9,1.59.65,1.14.26.43a10.79,10.79,0,0,0-.4-1.79,15.39,15.39,0,0,0-.64-1.76c-.15-.31-.28-.64-.46-1l-.05-.1v-.08l.09.14.49.75c.3.49.62,1,.93,1.54l.59,1.25c.15.32.24.49.24.49v-.29c.07.12.14.24.2.36l.4.8.36.73c.22.45.41.83.53,1.1a3.09,3.09,0,0,0,.22.42v-.47a7.16,7.16,0,0,0-.19-1.23,10.52,10.52,0,0,0-.3-1.1l.42.81c.3.56.59,1.13.88,1.65s.56,1,.81,1.42c.48.83.86,1.38.86,1.38a9.72,9.72,0,0,0-.35-1.6,14.54,14.54,0,0,0-.54-1.57c-.12-.28-.23-.57-.37-.86l-.24-.49a.43.43,0,0,0-.05-.24l.44.51v.09c.32.61.73,1.41,1.14,2.21L149,62.84c.16.31.3.56.41.74a2.75,2.75,0,0,0,.17.29,4.82,4.82,0,0,0,0-1.2,7.65,7.65,0,0,0-.27-1.17l.45.55,1.85,2.4.7.92-.54-1c-.17-.33-.39-.72-.66-1.15s-.55-.95-.9-1.47c-.67-1.07-1.52-2.28-2.47-3.54l-.3-.38a2.65,2.65,0,0,0-.09-.44,15.13,15.13,0,0,0-.76-2.48,15.38,15.38,0,0,0-1.28-2.32,7.78,7.78,0,0,0-.7-1,8.28,8.28,0,0,0,.18,1.2,16.39,16.39,0,0,0,.76,2.47c.12.29.25.58.38.86-.11-.14-.23-.27-.34-.4-.11-.32-.22-.66-.35-1s-.27-.75-.44-1.12l-.49-1.12-.55-1.11c-.18-.36-.39-.71-.58-1-.39-.67-.77-1.28-1.13-1.79-.17-.24-.32-.45-.47-.64.47.29.93.59,1.4.9l.17.11.05.07v.08a7.45,7.45,0,0,0-.87-.49s.1.14.29.37l.81,1,1,1.17.47.78c.36.62.75,1.28,1.1,2s.7,1.35,1,2l.43.94c.14.3.27.59.38.85.24.54.43,1,.56,1.29l.23.5v-.54a11.3,11.3,0,0,0-.21-1.42,15.16,15.16,0,0,0-.55-2c-.13-.32-.25-.66-.4-1l.88,1,.83.93.21.22.65,1.27.69,1.4.49,1,.21.39v-.44a7.14,7.14,0,0,0-.15-1.13,9.5,9.5,0,0,0-.43-1.56c-.1-.28-.2-.57-.33-.85s-.27-.57-.41-.85-.31-.55-.48-.82l-.09-.13c.34.41.66.81.93,1.15l.66.79.26.3a1,1,0,0,0-.07-.31l.73,1.51c.42.92.83,1.85,1.14,2.56l.39.87c.1.22.17.34.17.34v-.37a8.34,8.34,0,0,0,0-1,6.85,6.85,0,0,0-.13-.79c.11.19.21.38.32.55.3.49.57.93.77,1.32a4.42,4.42,0,0,1,.36,1,3,3,0,0,1,.06.42v-.1a1.68,1.68,0,0,0,.09-.32,2.93,2.93,0,0,0,0-1.18,7,7,0,0,0-.53-1.54c-.23-.53-.51-1.07-.79-1.62l-.26-.48.18.18a6,6,0,0,0-.26-.75c.25.47.52,1,.77,1.46s.51,1,.75,1.48.45.92.63,1.31l.47.94.19.36a6,6,0,0,0-.12-1.47,2.71,2.71,0,0,0-.14-.65.82.82,0,0,0,.11.28c.27.7.56,1.4.79,1.93.11.27.22.49.29.66l.13.25a3.76,3.76,0,0,0,.13-1,6.31,6.31,0,0,0-.19-1.43l.28.58.63,1.33.45,1,.19.37v-.42a7.89,7.89,0,0,0-.1-1.08,11,11,0,0,0-.37-1.5c-.09-.24-.17-.51-.29-.76l.25.19.18.12c.27.56.6,1.25.91,2s.64,1.56.87,2.17l.29.76c.07.19.12.29.12.29a1.05,1.05,0,0,1,.07-.31,4.65,4.65,0,0,0,.07-.83,6.64,6.64,0,0,0-.11-1.18,7.17,7.17,0,0,0-.41-1.29v-.09a1.64,1.64,0,0,0,.14.22c0,.09.11.17.17.26s0,.17.07.27a15.61,15.61,0,0,0,.61,1.74,15,15,0,0,0,.8,1.67,6,6,0,0,0,.48.75,3.41,3.41,0,0,0,.06-.9,4.91,4.91,0,0,0-.08-.67l.41.53a8.18,8.18,0,0,0-.34-1.38,11.51,11.51,0,0,0-.78-1.8l.9,1c.61.74,1.13,1.4,1.53,2s.71,1,.92,1.32l.31.48-.27-.5c-.18-.33-.42-.82-.8-1.41s-.85-1.29-1.41-2.09l-.95-1.23c-.35-.42-.72-.85-1.12-1.3-.82-.88-1.72-1.82-2.73-2.76s-2.09-1.89-3.26-2.82l-.66-.51h.08l.38.21a8.4,8.4,0,0,0-1-1.23,13.72,13.72,0,0,0-1.2-1.09c-.24-.18-.48-.38-.74-.54l-.79-.52c-.28-.16-.55-.32-.83-.46l-.83-.39h-.09c.32.08.64.14,1,.19a11.19,11.19,0,0,0-1.21-.87c-.37-.24-.82-.5-1.3-.77-.24-.12-.49-.27-.75-.39l-.78-.38c-.54-.24-1.07-.48-1.59-.67h0l-1.19-.79-.72-.45.19.09c.55.25,1.09.52,1.61.74l1.43.62c.84.35,1.45.54,1.45.54a8.58,8.58,0,0,0-1.17-1,14.37,14.37,0,0,0-1.31-.89c-.25-.15-.5-.31-.77-.45l-.82-.41-.85-.37c-.28-.12-.56-.21-.83-.31a13.38,13.38,0,0,0-1.53-.44,8.37,8.37,0,0,0-1-.18l-.55-.29-.26-.33,1.5.32c1,.2,1.65.28,1.65.28A10.7,10.7,0,0,0,140,44.7a15.6,15.6,0,0,0-1.59-.65c-.3-.09-.6-.21-.92-.29l-1-.26-1-.2c-.32-.07-.65-.1-1-.15l-1-.09c-.58-.2-1.15-.37-1.71-.52-.41-.11-.82-.2-1.21-.29v-.1l.46.06,1.73.18,1.53.12a10.21,10.21,0,0,0,1.51,0,9.08,9.08,0,0,0-1.4-.6,12.86,12.86,0,0,0-1.5-.43c-.28,0-.56-.13-.86-.17l-.89-.13-.86-.07a2,2,0,0,0-.18-.36c0-.06-.08-.11-.11-.16h0c.3,0,.61.09.92.11l1,.09c.64,0,1.28.08,1.88.09h1.65c.54,0,1.08-.08,1.62-.16a12.46,12.46,0,0,0-1.57-.4c-.48-.1-1-.2-1.63-.28s-1.23-.14-1.87-.2l-1-.06H129a2.62,2.62,0,0,0-.48-.22l.85-.36.14-.06.45.06,1.76.19,2,.22,2,.21c.64.07,1.24.13,1.76.17l1.26.11h.49a10.53,10.53,0,0,0-1.63-.67A13.19,13.19,0,0,0,135.9,39c-.32-.07-.66-.15-1-.19l-1-.15-1-.07h-1.72l.25-.09c.36-.15.77-.26,1.19-.4h.1l1.13.16,3.38.45,1.8.24,1.57.22,1.14.13h.44a8.33,8.33,0,0,0-1.43-.72A14.1,14.1,0,0,0,139.2,38c-.29-.06-.59-.15-.9-.2l-.94-.16-1-.1h-.92a11.14,11.14,0,0,0-1.63.09h-.13l.23-.07c.94-.27,2-.56,3-.8.54-.14,1.11-.24,1.68-.35s1.16-.23,1.77-.3h.12l-.49.23a3.09,3.09,0,0,0-.76.06,6.75,6.75,0,0,0-1.47.31l.41.08,1.05.18,1.46.22c.53.1,1.09.18,1.66.28l1.65.3,1.45.27,1,.19a2.9,2.9,0,0,0,.41.06,8,8,0,0,0-1.28-.78,10.6,10.6,0,0,0-1.33-.6c-.27-.08-.55-.18-.83-.24l-.88-.19-.88-.11a3.91,3.91,0,0,1-.84-.06l1.08-.18.66-.12,1.55.31c.6.13,1.23.25,1.86.41l1.86.46,1.61.45,1.16.32.46.12-.37-.29a8.3,8.3,0,0,0-1-.67,11.18,11.18,0,0,0-1.56-.75c-.3-.1-.61-.23-.93-.32l-1-.28-.8-.15h2.1a10.2,10.2,0,0,0,1.06.63,16.92,16.92,0,0,0,2.56,1.08c.48.16,1,.3,1.42.42a9.6,9.6,0,0,1,1.2.31,1.77,1.77,0,0,1,.71.42,1.07,1.07,0,0,1,.19.28v-.09a1.31,1.31,0,0,0,0-.28,1.65,1.65,0,0,0-.6-.82,5.32,5.32,0,0,0-1.2-.64c-.44-.19-.91-.37-1.39-.53a16.83,16.83,0,0,0-2.69-.68c-.28,0-.52-.08-.71-.1l1.88.06,1.92.15.61.07.46.19.67.29.75.33,1.58.77c.58.28,1,.58,1.54.86.23.15.48.28.69.42l.62.4.94.61.37.23s-.08-.14-.23-.37a6.85,6.85,0,0,0-.71-.9,9.6,9.6,0,0,0-1.2-1.1,6.37,6.37,0,0,0-.75-.53c-.26-.18-.54-.33-.82-.49l-.34-.16c.43.08.85.19,1.27.27s1.13.26,1.67.4l.57.15c.5.32,1.08.7,1.65,1.11l1,.73c.34.24.59.47.84.68l.61.51.24.19c0-.1,0-.2-.08-.3a5,5,0,0,0-.33-.75,5.68,5.68,0,0,0-.68-1c-.06-.07-.13-.13-.2-.2a15.11,15.11,0,0,1,1.81.88,9.6,9.6,0,0,1,1.65,1.19,8.17,8.17,0,0,1,.92.94l.29.38ZM142.1,15.92l.35.06H142Zm-4.65,1.14h.1l-.11.06-.19.12Zm-3,4.84.13-.25c.22-.18.43-.36.65-.52l.6-.45c.4-.12.79-.23,1.19-.32l-.2.08a7.4,7.4,0,0,0-2.09,1.41,4.52,4.52,0,0,0-.65.73l-.08.06a7,7,0,0,0,.49-.72Zm-1.62,0,.1-.11h.1l-.21.16Zm-26.5-5.3h0v-.05h0Zm3.47-.19h.08l.17.16.09.08Zm7,4.38a8.77,8.77,0,0,0-.62-1.27,2.26,2.26,0,0,0-.16-.26.31.31,0,0,1,.19,0,.78.78,0,0,1,.3.39c.09.2.19.45.31.7l.42.92Zm3,3.79v.12l-.1-.25Zm-.18,2.27.17.08.06.14a2.29,2.29,0,0,0-.21-.23Zm-2.81,8h-.52a8.81,8.81,0,0,0,1.34-.26l.47.32a10.81,10.81,0,0,0-1.27-.07Zm-16.39,6.57-.64.32c-.7.35-1.27.68-1.66.92l-.49.31.18-.18c.4-.24.78-.49,1.13-.72l.63-.28,1-.48Zm4.74-1.8c-.5.16-1,.31-1.49.48l-.79.28-.36.09-.26.07.85-.4.89-.45c.55-.13,1.1-.26,1.65-.36.73-.14,1.45-.26,2.17-.36-.38.07-.76.15-1.14.25l-1.5.39Zm4.47,1.3.32-.33.24-.05A4.62,4.62,0,0,1,109.63,40.92Zm2-.49-.34.12.38-.34.55-.13a5.6,5.6,0,0,0-.61.38Zm1.48.69c-.13.1-.28.19-.42.29l.47-.37.46-.34h.22a6.47,6.47,0,0,0-.75.45Zm.86-2.29c-.48.07-1,.13-1.5.23l-1.55.31c-.55.11-1,.24-1.52.38s-1,.3-1.47.44-1.17.41-1.7.62l.45-.42c.19-.17.29-.28.29-.28a7,7,0,0,0-1.32.49l.29-.21,2.46-.69L111,39l1.83-.48h1c1.31,0,2.57,0,3.78.06H118l.18.06h-1.47a21.12,21.12,0,0,0-2.72.19Zm5.42.08A11.66,11.66,0,0,0,118,39h-.55l1.17-.23h.25a8.8,8.8,0,0,0,1.15.13Zm-10.3,28.25v0Zm2-6.95v-.43l.12-.28c0,.23-.09.47-.14.71Zm1.63-3.72v.18a7.33,7.33,0,0,0-.11,1.14h0a6.4,6.4,0,0,0-.08-.87Zm0,1.56-.12.6v-.51l.19-.35h0a.4.4,0,0,0-.13.26Zm6.71-10.46h0a1.37,1.37,0,0,1,.2-.13Zm5.2-13.67v.63a2.81,2.81,0,0,0-.1-.31c-.06-.18-.14-.36-.2-.54Zm-1.9-4.05a1,1,0,0,1-.07-.15v-.56a2.78,2.78,0,0,0,.07.67Zm-.26,5.38,1.23,1.06.13.11.56.81-.18.08c-.2-.24-.42-.49-.67-.74a8.23,8.23,0,0,0-.63-.59l-.09-.11-.68-.84c0-.07-.11-.13-.17-.2Zm1.38,11.3v.06l-.09.09h0Zm-2.25-9.82h0l-.33-.35-.16-.15c-.12-.21-.26-.45-.42-.7l-.09-.13,1,.75.74.57.49.54c.2.22.39.42.59.62-.06,0-.11.11-.17.17l-.29-.28a12.89,12.89,0,0,0-1.36-1.08Zm-.13,2.15h0Zm-.3,11.25-.07.09v-.33l.09-.18a.76.76,0,0,1,0,.39Zm.43-3.59.08-.15h0Zm.19-6.93-.07.06c-.2.06-.4.12-.6.2l-.83.32-.24.12c.24-.16.48-.33.7-.51a3.53,3.53,0,0,0-.65,0l.16-.12,1.67-.23h.1Zm4.61-9.13a.52.52,0,0,1-.08.19c0,.06,0-.16,0-.24l.15-.27a1,1,0,0,0-.07.29Zm.57,6v-.09h0v.08Zm.92-3.23-.14.18h.08l-.14.19a1.46,1.46,0,0,1,.1-.34h.06Zm.07-.34h0l.09-.23Zm1.07.5-.29.22.13-.16.22-.25.34-.07-.4.25Zm5.37-6.49c.27-.05.49-.11.62-.14l-.5.35-.23-.11-.12-.05Zm-2.08.6.58-.12.54-.08.82-.11h.17l-.48.36-.77.61-.15-.07-.31-.1.37-.13.34-.12a2.29,2.29,0,0,0-.36-.07,4.2,4.2,0,0,0-1-.05h-.34a2.62,2.62,0,0,0,.56-.09Zm-.77,1.4a6.08,6.08,0,0,0,.87-.12c-.16.11-.32.22-.47.34l-.2.18a4.77,4.77,0,0,0-2.33.33l.09-.16.27-.16.51-.26C130.67,29,131.11,29,131.55,28.92ZM130,26.29h0c.26-.23.52-.46.77-.66l.36-.29c-.08.09-.15.2-.23.3a3.91,3.91,0,0,0-.75.53l-.19.18Zm-.38.63h.12l.33-.12c-.15.23-.31.46-.45.69l-.11.06c-.15.09-.27.18-.4.27.2-.34.33-.63.51-.9Zm-.85,1.85h.14l-.14.08a.17.17,0,0,0,0-.1Zm-.29,2.89c.62-.39,1.22-.79,1.69-1.11l.3-.22h.16L130,31a5.2,5.2,0,0,0-1.44.75l-.13.11Zm-.28.63a2.94,2.94,0,0,0,.58-.1h.07l-.23.27-.36.25a2,2,0,0,0-.07-.37Zm0,4.19a4.35,4.35,0,0,0,.52-.1c.38-.09.83-.21,1.29-.36l-.12.07c-.18.08-.39.18-.62.31s-.76.41-1.17.67c0-.21.07-.41.1-.61Zm15.63,17.34-.25-.26c-.05-.19-.1-.4-.16-.61Zm13.94,5.71c.37.31.72.62,1.06.93h0c.14.23.29.48.46.74a3.59,3.59,0,0,0-.39-.39,3.79,3.79,0,0,0-.38-.32,13.68,13.68,0,0,0-1-1.17ZM155.2,58.3l-.08,0,.08.27a1,1,0,0,0,.05.16c0-.07-.07-.15-.11-.23-.13-.25-.27-.49-.41-.73C154.87,57.92,155,58.1,155.2,58.3Zm-1.42-1.94.08.14a1.46,1.46,0,0,0-.16-.19Zm-1.43-1.06v.09l-.07-.11Zm-2.95-2.09c.42.52.9,1.11,1.4,1.68.25.31.51.61.77.9v.15c-.14-.17-.28-.33-.42-.47a5.42,5.42,0,0,0-.8-.71l-.18-.33a11,11,0,0,0-.94-1.3Zm-3.57-2.46.17.12c.13.16.29.33.47.54l1.14,1.28a5.89,5.89,0,0,0-.84-.65l.21.38.1.18-.45-.56c-.24-.26-.47-.52-.71-.76l-.72-.7-.61-.52-.24-.25-.22-.22ZM141,47.52c.11.28.25.63.43,1-.16-.26-.34-.52-.5-.76s-.27-.38-.41-.56Zm-11.46,1.12a1.34,1.34,0,0,0-.07-.51,1.29,1.29,0,0,0,.16.41.66.66,0,0,0,.08.17v.67A4.92,4.92,0,0,0,129.51,48.64Zm1.8,3.75v.16c-.09.62-.19,1.33-.29,2.1v-.17c0-.43-.05-.85-.07-1.27s-.06-.83-.09-1.22c-.05-.66-.11-1.28-.18-1.83l.67,1.48Zm.43-5.88h0q-.15-.45-.33-.87l.71.9a1.49,1.49,0,0,0,.13.37l.15.43C132.19,47.05,132,46.78,131.74,46.51Zm1,3,.53,1.11-.38-.52c-.17-.24-.34-.46-.5-.66s-.07-.61-.12-.95Zm1.07,9.3a6,6,0,0,1-.1.69,3.87,3.87,0,0,0-.06-.85,6.84,6.84,0,0,1-.08-.7.73.73,0,0,1,0-.27v-.92l.43,1a6,6,0,0,0-.22,1ZM135.39,63V61.17c.09.24.18.49.28.73s.09.25.14.38,0,.24,0,.42c0,.36,0,.88.05,1.5v.62a12.55,12.55,0,0,0-.5-1.82Zm2,3.91v1.52a4.55,4.55,0,0,0-.15-.91,12.62,12.62,0,0,0-.41-1.49,1.14,1.14,0,0,0-.13-.35c-.07-.53-.17-1-.29-1.57l-.12-.53c.3.82.6,1.64.87,2.45a1.49,1.49,0,0,0,.13.39h0l.06.18Zm0-4.46c-.31-.54-.62-1.05-.9-1.5l-.38-.62c-.39-1-.78-2-1.2-2.93h0l1.32,2.72Zm-2.17-6.57c.37.77.73,1.53,1.07,2.27-.22-.43-.47-.84-.7-1.25-.5-.86-1-1.64-1.44-2.3-.64-1-1.18-1.64-1.43-2-.32-.67-.65-1.31-1-1.92a1.51,1.51,0,0,0-.09-.38h0V49.5a2.28,2.28,0,0,0,0-.57l.25.68c.3.76.55,1.28.55,1.28v-.5l1.36,2.53C134.22,53.92,134.74,54.92,135.22,55.92Zm1.19-8.54-.08-.12.16.13v.07Zm1.73-2.5h.13a.83.83,0,0,0,.07.13l-.44-.21Zm.92,1.52h.06l.08.13.7,1.24-.31-.3-.73-.65-.32-.27-.29-.28-.41-.37.06.13c-.39-.32-.78-.61-1.12-.85l-.23-.17,2.51,1.37Zm-6.31-2.82,1.29.33c.41.17.82.34,1.24.53l.29.14a9.28,9.28,0,0,0,.83,1c.38.39.71.81,1.14,1.26.22.21.44.45.68.67l.07.07h0c.06.14.13.29.19.44l-.34-.4c-.2-.21-.4-.43-.62-.64l-.67-.64-.71-.59c-.23-.2-.48-.37-.71-.55h-.06c-.45-.32-.88-.6-1.26-.82l-.33-.18a5.9,5.9,0,0,0-.5-.5c0,.1.08.19.12.29-.42-.2-.69-.31-.69-.31s.38.47,1,1.09h0l.42,1-.49-.51-.16-.15a9.33,9.33,0,0,0-.6-.94,6.82,6.82,0,0,0-.63-.79Zm-.71-.2c.05.17.13.42.23.72l-.25-.18s.11.18.33.49l.05.08h0c.17.47.37,1,.6,1.62h0l-.14-.35c-.11-.28-.25-.55-.37-.81a10.23,10.23,0,0,0-.77-1.37q-.12-.19-.24-.36Zm-.4-.33h-.28l-.07-.13Zm-1-.29.23.06c.07.26.16.59.29,1a2.25,2.25,0,0,0,.08.24,4.41,4.41,0,0,0-.75-.62,3.4,3.4,0,0,0,.17-.7Zm-.07,5.4c.09.26.17.52.26.76v.16l-.54-1.16-.06-.25v.12a1.71,1.71,0,0,0-.13-.23,1.55,1.55,0,0,0,0-.23,7.87,7.87,0,0,0-.32-1.27,1.13,1.13,0,0,1,0-.26l.27.66c.21.59.4,1.15.59,1.68Zm-.65-3.93.11.34v-.06l-.14-.21a.41.41,0,0,0,.05-.09Zm-1,4.55v3.71c0,.21-.12.46-.18.74l-.06.35v-.19c0-.33.07-.68.07-1V49.7a8.52,8.52,0,0,0-.09-1.24,3.48,3.48,0,0,0-.12-.68V47.7c.12.35.27.72.4,1.06Zm-.39-9.26-.38-.08,1-.37h.19Zm10-3.83c-.58.13-1.15.26-1.7.43s-1.08.29-1.58.46l-.59.21a11.18,11.18,0,0,0-1.42.13,4.36,4.36,0,0,0-.68.11l.1-.05c.54-.28,1.14-.52,1.74-.79h.23c.34-.08.71-.12,1.08-.2.75-.12,1.55-.25,2.35-.33l1.36-.12Z"/><path class="cls-1" d="M130.66,126.1c-.52-4.75-5.88-47.38-6.06-50.13-.31-5,.69-21.65.69-21.65v-.13a2.51,2.51,0,0,1-1.13-.64,2.73,2.73,0,0,1-.62.3h-.06a2,2,0,0,1-1.2,0c-.47,6.71-1,15.4-1,18.45,0,3.9,3.45,47.84,3.82,53.77Z"/><g class="cls-2"><text class="cls-5" transform="translate(12.63 112.15)">S</text><text class="cls-6" transform="translate(33.35 112.15)">oCal</text></g><text class="cls-6" transform="translate(134.24 111.39)">Custom</text><rect class="cls-1" y="186.08" width="22.34" height="2.6"/><rect class="cls-1" x="244.63" y="188.68" width="22.34" height="2.6"/><g class="cls-2"><text class="cls-7" transform="translate(223.36 146.95)">e</text><text class="cls-8" transform="translate(228.91 146.95)">s</text><text class="cls-9" transform="translate(235.12 146.95)">t</text><text class="cls-8" transform="translate(239.41 146.95)">. 2015</text></g><circle class="cls-1" cx="261.36" cy="94.95" r="3.56"/><circle class="cls-1" cx="3.56" cy="94.95" r="3.56"/><path class="cls-1" d="M45,57.92a91,91,0,0,1,166.81,0h4.74a95.06,95.06,0,0,0-175,0Z"/><path class="cls-1" d="M211.8,130.37a91,91,0,0,1-166.81,0H40.81a95.06,95.06,0,0,0,176.41,0Z"/><path class="cls-1" d="M169.58,57.92a40.23,40.23,0,0,1,.4,5.6v.22h89.63V80.92h5.55v-23Z"/><path class="cls-1" d="M88.2,63.48a41.34,41.34,0,0,1,.39-5.56H0v23H5.54V63.7H88.2Z"/></g></g></g></g></svg>